<?xml version="1.0" standalone="no"?>
<!DOCTYPE svg PUBLIC "-//W3C//DTD SVG 20010904//EN"
 "http://www.w3.org/TR/2001/REC-SVG-20010904/DTD/svg10.dtd">
<svg version="1.0" xmlns="http://www.w3.org/2000/svg"
 width="1280.000000pt" height="852.000000pt" viewBox="0 0 1280.000000 852.000000"
 preserveAspectRatio="xMidYMid meet">
<metadata>
Created by potrace 1.15, written by Peter Selinger 2001-2017
</metadata>
<g transform="translate(0.000000,852.000000) scale(0.100000,-0.100000)"
fill="#000000" stroke="none">
<path d="M6272 8500 c-33 -20 -36 -20 -89 -5 -31 9 -66 14 -79 11 -32 -8 -41
-49 -19 -82 17 -26 17 -27 -11 -50 -17 -13 -43 -23 -61 -24 -34 0 -63 -22 -63
-46 0 -18 44 -61 71 -69 16 -5 19 -16 19 -67 0 -56 -1 -60 -21 -55 -29 8 -103
-16 -148 -47 -73 -51 -98 -128 -80 -246 11 -75 11 -76 -29 -180 -218 -572
-604 -1234 -1107 -1898 l-70 -93 -135 7 c-117 6 -139 10 -161 28 -17 13 -26
30 -25 46 1 24 -2 25 -109 42 -60 9 -137 17 -171 17 -68 1 -80 -7 -128 -90
-29 -51 -25 -60 28 -73 l29 -7 -32 -20 c-43 -26 -64 -78 -56 -139 5 -35 2 -56
-10 -80 -10 -20 -15 -44 -11 -61 5 -25 -5 -35 -132 -137 -238 -189 -399 -343
-487 -466 l-20 -28 -162 12 c-127 10 -200 10 -345 0 -100 -6 -184 -13 -186
-14 -1 -2 -7 -32 -13 -67 -25 -156 -16 -140 -89 -161 -83 -25 -126 -36 -172
-43 -42 -7 -49 -20 -17 -30 14 -5 19 -14 18 -33 -6 -80 14 -90 112 -57 40 14
74 25 76 25 2 0 1 -32 -3 -71 -6 -67 -6 -71 12 -66 10 3 54 16 96 28 l77 22
298 -73 c164 -39 349 -85 412 -100 l114 -29 35 24 c20 14 37 23 38 22 4 -5
-61 -1126 -66 -1131 -3 -3 -54 -9 -113 -14 -59 -5 -109 -11 -111 -13 -5 -5
-45 -601 -49 -721 l-2 -76 -35 -6 c-19 -3 -145 -6 -280 -7 -135 -1 -306 -4
-380 -8 l-135 -6 -5 -30 -5 -30 -733 -3 c-707 -2 -732 -3 -732 -21 0 -20 -34
-31 -101 -31 -37 0 -38 -1 -41 -37 l-3 -38 -88 -3 -88 -3 3 -32 3 -32 -80 -5
-80 -5 -5 -40 -5 -40 -80 -5 -80 -5 -3 -32 -3 -33 -79 0 c-62 0 -79 -3 -84
-16 -12 -32 -6 -54 17 -59 12 -2 301 -49 642 -104 341 -55 831 -134 1090 -176
259 -42 607 -99 775 -126 168 -27 311 -51 318 -54 6 -2 12 -13 12 -23 0 -18
14 -19 235 -26 222 -6 237 -6 263 12 15 11 46 31 70 46 l43 27 -3 -33 -3 -33
960 -137 c528 -75 2273 -324 3877 -552 l2917 -416 438 201 c241 111 479 220
528 242 50 22 96 45 103 50 10 8 12 137 10 636 l-3 626 -43 388 c-24 214 -41
391 -39 394 3 3 128 -4 279 -15 150 -11 276 -18 279 -16 14 8 30 273 27 434
l-3 175 -24 3 -24 4 7 106 c3 59 9 176 12 260 5 118 10 152 20 152 17 0 20 96
3 102 -8 3 -8 63 0 225 7 138 11 723 11 1567 0 1330 0 1346 -20 1346 -33 0
-118 104 -120 147 0 6 13 14 30 18 35 8 61 40 53 64 -4 9 -15 27 -25 40 -10
13 -18 37 -18 53 0 16 -6 31 -14 34 -13 5 -242 -45 -313 -69 -47 -15 -50 -27
-18 -65 14 -17 22 -33 18 -35 -8 -5 -91 -28 -538 -148 -104 -29 -269 -73 -365
-99 -96 -26 -263 -71 -370 -100 -107 -29 -274 -74 -370 -100 -96 -26 -312 -85
-479 -130 l-304 -82 -60 18 c-33 10 -130 58 -216 107 -457 261 -1530 835
-2627 1406 -308 160 -312 162 -316 196 -2 18 2 41 9 51 7 10 13 26 13 36 0 26
-66 95 -119 125 -25 14 -103 59 -172 99 -69 41 -132 74 -140 74 -8 0 -29 -9
-47 -20z m4534 -2161 c4 -8 1 -8 -14 0 -12 6 -24 16 -28 22 -4 8 -1 8 14 0 12
-6 24 -16 28 -22z m-976 -1366 c0 -38 3 -98 7 -135 5 -58 4 -68 -10 -68 -18 0
-24 32 -30 172 -5 89 -3 98 20 98 9 0 13 -18 13 -67z m-2895 -253 c171 -6 371
-13 445 -17 l135 -6 -60 -13 c-110 -24 -1037 -214 -1046 -214 -4 0 -2 21 6 48
8 26 15 50 15 54 0 4 -33 9 -72 11 -72 3 -71 3 18 5 148 3 150 4 174 78 19 57
24 64 48 64 15 0 167 -4 337 -10z m-2968 -676 c-3 -3 -12 -4 -19 -1 -8 3 -5 6
6 6 11 1 17 -2 13 -5z m-50 -10 c-3 -3 -12 -4 -19 -1 -8 3 -5 6 6 6 11 1 17
-2 13 -5z m-60 -10 c-3 -3 -12 -4 -19 -1 -8 3 -5 6 6 6 11 1 17 -2 13 -5z
m-54 -11 c-7 -2 -19 -2 -25 0 -7 3 -2 5 12 5 14 0 19 -2 13 -5z m-66 -9 c-3
-3 -12 -4 -19 -1 -8 3 -5 6 6 6 11 1 17 -2 13 -5z m-54 -11 c-7 -2 -21 -2 -30
0 -10 3 -4 5 12 5 17 0 24 -2 18 -5z m452 -335 c-4 -106 -10 -296 -14 -421 -5
-153 -11 -231 -18 -235 -13 -8 -483 -46 -489 -39 -6 6 44 818 51 825 7 8 379
59 438 61 l38 1 -6 -192z"/>
</g>
</svg>
